<?xml version="1.0" encoding="UTF-8" standalone="no"?>
<svg
   sodipodi:docname="searxng.svg"
   inkscape:version="1.0 (4035a4fb49, 2020-05-01)"
   id="svg8"
   version="1.1"
   viewBox="0 0 255.96389 42.936821"
   height="42.936821mm"
   width="255.9639mm"
   xmlns:inkscape="http://www.inkscape.org/namespaces/inkscape"
   xmlns:sodipodi="http://sodipodi.sourceforge.net/DTD/sodipodi-0.dtd"
   xmlns="http://www.w3.org/2000/svg"
   xmlns:svg="http://www.w3.org/2000/svg"
   xmlns:rdf="http://www.w3.org/1999/02/22-rdf-syntax-ns#"
   xmlns:cc="http://creativecommons.org/ns#"
   xmlns:dc="http://purl.org/dc/elements/1.1/">
  <defs
     id="defs2">
    <rect
       x="0.023412704"
       y="0.020520346"
       width="1213.2513"
       height="275.74414"
       id="rect1180" />
  </defs>
  <sodipodi:namedview
     inkscape:window-maximized="1"
     inkscape:window-y="2149"
     inkscape:window-x="-7"
     inkscape:window-height="1346"
     inkscape:window-width="2560"
     fit-margin-bottom="0"
     fit-margin-right="0"
     fit-margin-left="0"
     fit-margin-top="0"
     showgrid="false"
     inkscape:document-rotation="0"
     inkscape:current-layer="layer1"
     inkscape:document-units="mm"
     inkscape:cy="235.27775"
     inkscape:cx="1236.8338"
     inkscape:zoom="0.7"
     inkscape:pageshadow="2"
     inkscape:pageopacity="0.0"
     borderopacity="1.0"
     bordercolor="#666666"
     pagecolor="#ffffff"
     id="base"
     inkscape:showpageshadow="2"
     inkscape:pagecheckerboard="0"
     inkscape:deskcolor="#d1d1d1" />
  <metadata
     id="metadata5">
    <rdf:RDF>
      <cc:Work
         rdf:about="">
        <dc:format>image/svg+xml</dc:format>
        <dc:type
           rdf:resource="http://purl.org/dc/dcmitype/StillImage" />
        <dc:title />
      </cc:Work>
    </rdf:RDF>
  </metadata>
  <g
     transform="translate(-4.0289272,-7.4746152)"
     id="layer1"
     inkscape:groupmode="layer"
     inkscape:label="Layer 1">
    <g
       inkscape:export-ydpi="96"
       inkscape:export-xdpi="96"
       transform="translate(-25.702381,-86.178571)"
       style="font-style:normal;font-weight:normal;font-size:50.8px;line-height:1.25;font-family:sans-serif;display:none;fill:#487cff;fill-opacity:1;stroke:none;stroke-width:0.264583"
       id="text884"
       aria-label="SearXNG">
      <path
         id="path886"
         style="font-style:normal;font-variant:normal;font-weight:normal;font-stretch:normal;font-size:50.8px;font-family:'Libre Franklin';-inkscape-font-specification:'Libre Franklin';fill:#487cff;fill-opacity:1;stroke-width:0.264583"
         d="m 56.494069,102.70358 q -1.1684,-1.2192 -3.047999,-2.032 -1.8796,-0.812802 -4.4196,-0.812802 -3.1496,0 -5.08,1.320802 -1.9304,1.27 -1.9304,3.4544 0,2.3368 3.7084,3.6068 l 7.6708,2.6416 q 3.962399,1.3208 5.841999,3.4036 1.8796,2.0828 1.8796,5.1308 0,4.064 -2.1844,7.0104 -2.1844,2.8956 -5.943599,4.4196 -3.7592,1.524 -8.4836,1.524 -5.334,0 -9.0424,-1.778 -3.7084,-1.8288 -5.5372,-5.1308 -0.2032,-0.3556 -0.2032,-0.7112 0,-0.3556 0.4064,-0.6096 l 4.0132,-2.4384 q 0.3556,-0.254 0.762,-0.254 0.6096,0 1.1176,0.6604 1.3208,1.6256 2.3876,2.54 1.1176,0.8636 2.6924,1.3208 1.6256,0.4572 4.1656,0.4572 3.2004,0 5.1816,-1.1684 1.9812,-1.2192 1.9812,-3.7592 0,-1.27 -0.9144,-2.0828 -0.9144,-0.8636 -2.9464,-1.5748 l -7.4168,-2.4892 q -3.6576,-1.2192 -5.588,-3.556 -1.8796,-2.3876 -1.8796,-5.4356 0,-3.7592 2.1336,-6.654802 2.1336,-2.8956 5.6896,-4.4704 3.6068,-1.5748 7.874,-1.5748 4.3688,0 7.670799,1.5748 3.3528,1.524 5.1816,3.9624 0.4064,0.508 0.4064,0.762 0,0.254002 -0.3556,0.457202 l -4.5212,2.9972 q -0.0508,0.0508 -0.2032,0.0508 -0.3048,0 -1.0668,-0.762 z" />
      <path
         id="path888"
         style="font-style:normal;font-variant:normal;font-weight:normal;font-stretch:normal;font-size:50.8px;font-family:'Libre Franklin';-inkscape-font-specification:'Libre Franklin';fill:#487cff;fill-opacity:1;stroke-width:0.264583"
         d="m 77.003775,132.37078 q -3.6068,0 -6.4008,-1.4732 -2.794,-1.4732 -4.318,-4.1148 -1.524,-2.6924 -1.524,-6.1976 0,-4.1656 1.9812,-7.874 2.032,-3.7592 5.5372,-5.9944 3.556,-2.286 7.9248,-2.286 5.334,0 8.4836,3.1496 3.1496,3.1496 3.1496,8.6868 0,1.4732 -0.2032,2.8448 -0.1016,0.4064 -0.3556,0.6096 -0.2032,0.1524 -0.8128,0.1524 h -17.1196 q -0.8128,0 -0.8128,2.1844 0,2.3876 1.524,3.7084 1.5748,1.27 4.064,1.27 1.9304,0 3.6068,-0.8128 1.6764,-0.8128 3.302,-2.54 0.254,-0.254 0.508,-0.254 0.1524,0 0.6604,0.2032 l 3.3528,1.5748 q 0.6096,0.2032 0.6096,0.6604 0,0.254 -0.254,0.6604 -2.9464,3.302 -5.8928,4.572 -2.8956,1.27 -7.0104,1.27 z m 6.4516,-16.5608 q 1.2192,0 1.2192,-1.9812 0,-1.9304 -1.1684,-3.2512 -1.1684,-1.3716 -3.2512,-1.3716 -2.54,0 -4.5212,1.9304 -1.9304,1.8796 -2.2352,4.6736 z" />
      <path
         id="path890"
         style="font-style:normal;font-variant:normal;font-weight:normal;font-stretch:normal;font-size:50.8px;font-family:'Libre Franklin';-inkscape-font-specification:'Libre Franklin';fill:#487cff;fill-opacity:1;stroke-width:0.264583"
         d="m 109.411,129.37358 q -3.048,2.9972 -8.3312,2.9972 -3.555996,0 -5.587996,-1.8288 -2.032,-1.8288 -2.032,-4.7752 0,-3.6068 2.3876,-5.8928 2.3876,-2.3368 5.994396,-3.3528 3.6576,-1.0668 7.5692,-1.1684 l 1.8288,-0.1524 q 0.9652,0 1.1176,-0.9652 l 0.1524,-1.0668 q 0.0508,-0.254 0.0508,-0.8128 0,-3.048 -3.5052,-3.048 -4.0132,0 -5.9436,3.1496 -0.254,0.3556 -0.6604,0.3556 -0.3048,0 -0.4572,-0.0508 l -4.927596,-1.1684 q -0.508,-0.1016 -0.508,-0.6604 0,-0.508 0.254,-1.016 3.352796,-5.4864 12.649196,-5.4864 5.4864,0 8.0264,1.9304 2.5908,1.9304 2.5908,5.334 0,0.4572 -0.1016,1.4732 l -2.54,17.78 q -0.0508,0.6604 -0.2032,0.8128 -0.1524,0.1016 -0.7112,0.1016 h -5.2324 q -0.508,0 -0.6604,-0.3048 -0.1524,-0.3048 -0.2032,-1.016 l 0.0508,-1.3208 q 0,-0.4064 -0.254,-0.4064 -0.254,0 -0.8128,0.5588 z m 2.1844,-9.7536 v -0.3048 q 0,-0.2032 -0.1016,-0.254 -0.1016,-0.1016 -0.4064,-0.0508 l -1.8288,0.1524 q -2.9464,0.2032 -5.4864,1.4732 -2.54,1.27 -2.54,3.9116 0,1.2192 0.8636,1.9812 0.9144,0.7112 2.4384,0.7112 1.3208,0 2.4892,-0.3556 1.1684,-0.4064 2.032,-1.0668 1.8796,-1.4224 2.0828,-2.8956 z" />
      <path
         id="path892"
         style="font-style:normal;font-variant:normal;font-weight:normal;font-stretch:normal;font-size:50.8px;font-family:'Libre Franklin';-inkscape-font-specification:'Libre Franklin';fill:#487cff;fill-opacity:1;stroke-width:0.264583"
         d="m 123.8636,131.86278 q -0.6096,0 -0.9144,-0.3556 -0.254,-0.3556 -0.1524,-0.9144 l 3.5052,-24.9428 q 0.0508,-0.4572 0.1524,-0.5588 0.1524,-0.1524 0.5588,-0.1524 h 6.0452 q 0.9144,0 0.7112,1.0668 l -0.3556,2.286 v 0.2032 q 0,0.3556 0.2032,0.3556 0.1524,0 0.4572,-0.3048 1.778,-1.8796 3.9624,-2.9972 2.1844,-1.1176 3.9624,-1.1176 1.0668,0 1.5748,0.1524 0.508,0.1524 0.4572,0.6096 l -0.8128,5.6896 q -0.0508,0.5588 -0.2032,0.7112 -0.1016,0.1524 -0.4064,0.1016 -1.7272,-0.254 -3.4544,-0.254 -1.3208,0 -2.794,0.7112 -1.4732,0.6604 -2.54,1.778 -1.016,1.0668 -1.1684,2.1336 l -2.0828,14.8336 q -0.1016,0.6604 -0.3556,0.8128 -0.2032,0.1524 -0.9652,0.1524 z" />
      <path
         id="path894"
         style="font-style:normal;font-variant:normal;font-weight:normal;font-stretch:normal;font-size:50.8px;font-family:'Libre Franklin';-inkscape-font-specification:'Libre Franklin';fill:#487cff;fill-opacity:1;stroke-width:0.264583"
         d="m 176.48129,130.08478 q 0.4572,0.8128 0.4572,1.2192 0,0.3048 -0.254,0.4572 -0.254,0.1016 -0.762,0.1016 h -7.0612 q -0.6096,0 -0.9652,-0.1524 -0.3048,-0.1524 -0.508,-0.6096 l -5.6388,-11.7348 q -0.254,-0.508 -0.508,-0.508 -0.1524,0 -0.5588,0.5588 l -9.0424,11.8364 q -0.254,0.4064 -0.6096,0.508 -0.3048,0.1016 -1.0668,0.1016 h -5.9436 q -1.016,0 -1.016,-0.6604 0,-0.4572 0.762,-1.524 l 13.0048,-16.3068 q 0.5588,-0.6096 0.5588,-1.0668 0,-0.3556 -0.1016,-0.5588 l -8.4836,-16.560802 q -0.1524,-0.254 -0.1524,-0.508 0,-0.508 0.762,-0.508 h 7.4168 q 0.6604,0 0.9144,0.1524 0.254,0.1524 0.508,0.6604 l 4.9276,10.363202 q 0.1524,0.4064 0.3556,0.4064 0.2032,0 0.508,-0.4064 l 8.0264,-10.566402 q 0.3048,-0.4064 0.5588,-0.508 0.3048,-0.1016 0.9652,-0.1016 h 6.5532 q 0.6096,0 0.6096,0.5588 0,0.4064 -0.3048,0.9144 l -12.5984,15.646402 q -0.508,0.6604 -0.508,0.9144 0,0.2032 0.1524,0.508 z" />
      <path
         id="path896"
         style="font-style:normal;font-variant:normal;font-weight:normal;font-stretch:normal;font-size:50.8px;font-family:'Libre Franklin';-inkscape-font-specification:'Libre Franklin';fill:#487cff;fill-opacity:1;stroke-width:0.264583"
         d="m 218.11268,94.169178 q 0.3556,0 0.4572,0.2032 0.1016,0.1524 0.0508,0.5588 l -5.1308,36.372802 q -0.0508,0.3556 -0.254,0.4572 -0.1524,0.1016 -0.5588,0.1016 h -5.1816 q -0.6604,0 -1.1684,-0.8128 l -13.1064,-22.7076 q -0.1524,-0.254 -0.3048,-0.254 -0.3048,0 -0.3556,0.5588 l -3.1496,22.4028 q -0.1016,0.508 -0.3048,0.6604 -0.1524,0.1524 -0.7112,0.1524 h -5.588 q -0.8128,0 -0.7112,-1.1176 l 5.08,-35.814002 q 0.1016,-0.508 0.2032,-0.6096 0.1524,-0.1524 0.6604,-0.1524 h 6.1468 q 0.508,0 0.762,0.254 0.3048,0.2032 0.5588,0.7112 l 11.9888,21.183602 q 0.254,0.4064 0.508,0.4064 0.4064,0 0.4572,-0.6096 l 2.9464,-21.285202 q 0.0508,-0.4064 0.2032,-0.508 0.2032,-0.1524 0.6604,-0.1524 z" />
      <path
         id="path898"
         style="font-style:normal;font-variant:normal;font-weight:normal;font-stretch:normal;font-size:50.8px;font-family:'Libre Franklin';-inkscape-font-specification:'Libre Franklin';fill:#487cff;fill-opacity:1;stroke-width:0.264583"
         d="m 236.43958,132.37078 q -4.572,0 -7.9248,-1.9304 -3.3528,-1.9304 -5.1308,-5.4356 -1.7272,-3.556 -1.7272,-8.3312 0,-6.2992 2.4892,-11.5316 2.4892,-5.283202 7.0612,-8.382002 4.572,-3.0988 10.5156,-3.0988 4.064,0 7.1628,1.5748 3.1496,1.5748 4.8768,4.1656 1.7272,2.540002 1.8288,5.435602 0,0.508 -0.1016,0.762 -0.0508,0.2032 -0.254,0.254 l -6.9596,1.016 h -0.0508 q -0.2032,0 -0.3556,-0.254 -0.1016,-0.254 -0.254,-1.016 -0.3556,-2.54 -1.9304,-4.1148 -1.524,-1.574802 -4.318,-1.574802 -3.6068,0 -5.9944,2.641602 -2.3368,2.6416 -3.4544,6.8072 -1.1176,4.1148 -1.1176,8.5852 0,4.3688 1.6256,6.2992 1.6764,1.8796 4.8768,1.8796 3.0988,0 5.2324,-1.7272 2.1336,-1.7272 3.1496,-4.2164 l 0.3048,-1.4224 q 0.1524,-0.254 0.1524,-0.3556 0,-0.3048 -0.6096,-0.3048 h -6.2484 q -0.3048,0 -0.4064,-0.1016 -0.1016,-0.1524 -0.0508,-0.5588 l 0.4572,-4.1656 q 0.0508,-0.5588 0.508,-0.5588 l 14.5288,0.0508 q 0.6096,0 0.762,0.2032 0.2032,0.1524 0.1016,0.6604 l -2.4892,17.5768 q -0.0508,0.6604 -0.8128,0.6604 h -1.524 q -0.4572,0 -0.7112,-0.1524 -0.2032,-0.1524 -0.3556,-0.6096 l -0.8636,-3.7084 q -0.0508,-0.254 -0.3556,-0.254 -0.3048,0 -0.6604,0.4064 -1.6764,2.0828 -4.3688,3.4544 -2.6924,1.3716 -6.604,1.3716 z" />
    </g>
    <g
       aria-label="PonySearch"
       transform="matrix(0.3100831,0,0,0.3100831,3.9925893,-15.387177)"
       id="text472"
       style="font-size:192px;font-family:Equestria;-inkscape-font-specification:'Equestria, Normal';white-space:pre;fill:#487aff;stroke-width:3"
       inkscape:label="text472">
      <path
         d="m 1.5234375,78.040453 q 50.9999995,3.5625 59.1562495,7.875 13.3125,3.75 17.8125,12.09375 10.6875,16.687497 10.6875,27.749997 v 1.5 q 0,16.78125 -45.5625,28.5 -2.90625,0 -2.90625,1.40625 0,22.96875 11.4375,35.625 v 0.65625 q -0.46875,2.15625 -5.71875,2.15625 H 15.117188 q -7.8750005,0 -7.8750005,-2.15625 11.4374995,-4.125 11.4374995,-24.1875 l 0.65625,-17.0625 v -35.625 q 0,-15.1875 -19.2187495,-37.124997 z m 38.5312495,57.749997 2.8125,1.40625 q 22.78125,-5.15625 22.78125,-19.21875 0,-11.90625 -15.65625,-14.25 h -2.15625 q -7.125,0 -7.125,18.46875 z"
         id="path1182" />
      <path
         d="m 124.71094,104.3842 h 2.25 q 15.1875,0 21.09375,16.59375 2.34375,7.78125 2.34375,14.25 v 6.1875 l 0.46875,5.15625 q 0,13.59375 -18.84375,20.53125 l -6.75,1.21875 q -11.71875,0 -19.96875,-9.1875 -6.843753,-8.8125 -6.843753,-23.4375 v -3.375 q 0,-17.8125 19.312503,-26.71875 z m -9.1875,30.1875 q 1.3125,18.84375 9.1875,18.84375 h 1.125 q 10.125,0 11.90625,-19.96875 v -0.5625 q 0,-13.6875 -10.21875,-13.6875 -9.09375,0 -12,14.25 z"
         id="path1184" />
      <path
         d="m 201.58594,80.571703 q 38.71875,0.75 38.71875,3.9375 -8.53125,13.3125 -8.53125,19.968747 -2.25,10.96875 -2.25,26.15625 0,39.46875 7.40625,46.21875 l 4.59375,5.71875 v 1.125 l -26.25,4.5 q -2.8125,0 -4.59375,-12 -5.71875,-15.5625 -19.3125,-43.875 h -0.65625 l -1.125,21.09375 q 0,13.03125 7.5,18.84375 l 1.6875,2.34375 q 0,2.0625 -38.25,4.5 l -0.5625,-0.5625 v -1.125 q 15.375,-9 15.375,-37.03125 0,-28.875 -15.375,-39.375 l -1.6875,-2.249997 v -0.5625 l 3.9375,-0.5625 h 33.09375 q 1.59375,0 9.65625,25.687497 9.375,22.59375 10.875,23.90625 l 0.5625,-12.5625 q 0,-42.468747 -16.5,-51.281247 l -0.5625,-0.5625 v -1.78125 z"
         id="path1186" />
      <path
         d="m 299.17969,87.134203 h 0.65625 l 44.34375,1.125 0.65625,0.5625 v 1.78125 q -6.46875,3.46875 -11.4375,7.96875 -15.5625,17.531247 -29.0625,48.374997 v 13.125 q 0,11.4375 12,16.5 l 1.125,1.78125 q 0,1.5 -37.125,7.40625 0,1.125 -3.9375,1.125 h -2.8125 l -1.125,-1.125 q 15.9375,-11.4375 15.9375,-23.90625 0,-11.15625 -23.4375,-43.40625 -7.96875,-9.375 -17.0625,-14.25 v -1.125 l 17.0625,-1.125 0.65625,0.5625 h 0.46875 l 2.34375,-0.5625 7.40625,0.5625 10.21875,-0.5625 h 0.65625 q 1.6875,0 1.6875,2.25 -3.46875,6 -3.46875,9.75 0,7.5 10.3125,17.625 15.375,-20.34375 15.375,-29.0625 0,-3.843747 -11.4375,-14.812497 z"
         id="path1188" />
      <path
         d="m 430.61719,75.509203 0.75,4.21875 q 0,15.65625 -3.5625,28.499997 -12.84375,-12.093747 -22.125,-12.093747 h -5.625 q -12.84375,1.96875 -12.84375,12.093747 3.84375,3.375 36.28125,19.96875 10.03125,9.375 10.03125,16.40625 v 2.8125 q 0,21.75 -24.9375,42.75 -9.1875,4.96875 -12.84375,4.96875 h -0.75 q -16.875,0 -34.125,-32.0625 -7.875,-6.84375 -7.875,-11.34375 9.65625,-2.15625 42.75,-2.15625 h 0.75 v 1.40625 q -9.28125,8.90625 -9.28125,12.84375 v 0.75 q 1.125,7.78125 7.78125,7.78125 h 2.90625 q 11.34375,0 11.34375,-24.1875 v -2.15625 q 0,-6.65625 -21.375,-7.875 -25.59375,-3.375 -25.59375,-24.1875 v -1.40625 q 0,-17.437497 24.9375,-32.062497 3.46875,-2.15625 9.28125,-2.15625 h 2.8125 l 11.4375,3.5625 q 4.875,0 19.875,-6.375 z"
         id="path1190" />
      <path
         d="m 511.14844,91.821703 h 0.5625 q 3.1875,0 4.5,32.437497 v 0.5625 h -1.6875 q -9.9375,-12.46875 -21.09375,-12.46875 l -15.9375,-0.65625 q -3.46875,2.25 -3.46875,14.25 v 3.46875 l 1.78125,1.6875 q 8.34375,0 17.625,-9.09375 2.34375,10.03125 2.34375,26.8125 v 2.8125 h -1.125 q -15.65625,-6.84375 -18.375,-6.84375 h -1.59375 q -1.78125,6.1875 -1.78125,11.90625 v 5.71875 q 0,1.78125 10.875,2.34375 21.65625,0 21.65625,-5.15625 l 7.40625,-7.40625 q 1.6875,3.375 1.6875,12 v 15.375 l -1.125,1.125 -59.90625,1.6875 -0.46875,0.5625 h -0.65625 l -0.46875,-0.5625 h -0.65625 l -7.40625,1.21875 -0.5625,-1.78125 q 13.125,-20.25 13.125,-40.96875 0,-24.84375 -12.5625,-43.968747 l -1.125,-2.8125 h 0.5625 l 54.75,4.5 q 5.0625,-0.75 13.125,-6.75 z"
         id="path1192" />
      <path
         d="m 575.17969,83.946703 h 1.78125 q 1.5,0 2.8125,21.093747 l 6.1875,45 q 6.75,27.65625 13.78125,37.6875 1.40625,0 2.8125,4.59375 l -38.25,5.0625 -0.46875,-1.6875 q 8.53125,-11.0625 8.53125,-26.25 v -11.34375 h -10.875 l -6.28125,-0.65625 q -2.25,0.65625 -2.25,4.03125 0,10.78125 8.53125,18.1875 v 0.65625 l -2.25,1.125 q -34.21875,-0.75 -34.21875,-3.375 10.59375,-12.75 16.5,-30.28125 7.40625,-22.40625 7.40625,-40.96875 v -1.78125 q 0,-4.21875 -9.65625,-9.656247 -2.8125,0 -2.8125,-1.6875 2.8125,-2.53125 38.71875,-9.75 z m -10.875,36.468747 -7.96875,23.90625 v 0.65625 h 1.125 l 12.5625,-0.65625 v -0.46875 q -2.8125,-16.59375 -5.0625,-23.4375 z"
         id="path1194" />
      <path
         d="m 601.33594,81.040453 q 45.5625,6.375 45.5625,11.4375 16.59375,10.968747 16.59375,25.593747 0,5.25 -14.8125,19.96875 7.96875,8.90625 7.96875,24.5625 7.96875,27.28125 9.75,27.84375 3.84375,2.90625 7.3125,2.90625 h 1.6875 q 7.5,0 10.3125,-9.1875 0,-5.71875 1.6875,-5.71875 10.875,8.25 10.875,18.84375 0,6.28125 -18.28125,12.5625 -5.15625,2.34375 -12.46875,2.34375 -9.75,0 -22.875,-36.5625 -6.84375,-25.3125 -11.34375,-29.625 -2.90625,-1.6875 -5.71875,-1.6875 l -0.5625,0.5625 q 0,17.625 8.53125,29.0625 l -0.5625,0.5625 v 0.5625 l -7.96875,-0.5625 -24,3.46875 -1.125,-1.125 q 6.09375,-6.28125 9.75,-38.8125 l 0.5625,-8.53125 v -5.15625 q 0,-12.75 -12,-41.531247 v -0.65625 z m 23.90625,20.531247 v 9.75 l 1.21875,15.375 v 1.6875 l 1.125,1.125 q 14.8125,-4.96875 14.8125,-14.8125 -2.625,-14.25 -10.21875,-14.25 z"
         id="path1196" />
      <path
         d="m 731.64844,90.884203 h 0.5625 l 0.5625,2.8125 v 5.15625 q 0,24.468747 -2.25,24.468747 h -0.5625 q -11.53125,-10.21875 -19.96875,-10.21875 -19.40625,0 -19.40625,21.65625 0,27.9375 19.96875,27.9375 12.75,0 20.53125,-13.125 h 0.5625 l 1.125,1.6875 v 10.3125 q 0,14.8125 -3.375,14.8125 l -25.125,5.71875 q -13.5,0 -26.8125,-25.125 -2.25,-9 -2.25,-14.8125 0,-25.96875 5.71875,-30.84375 9.5625,-10.875 24.46875,-16.499997 l 2.25,-0.5625 h 4.03125 l 9.09375,2.8125 q 3.09375,0 10.875,-6.1875 z"
         id="path1198" />
      <path
         d="m 821.08594,73.727953 0.46875,0.46875 v 0.65625 q -13.125,10.875 -13.125,28.499997 v 10.21875 l -0.46875,4.59375 0.46875,6.28125 v 26.25 q 0,24.375 17.15625,34.125 v 1.125 h -0.5625 l -42.75,4.59375 -0.5625,-0.5625 v -1.125 q 11.34375,-10.875 11.34375,-34.78125 l -1.125,-19.96875 h -8.53125 q -13.6875,0.375 -13.6875,1.6875 0,18.65625 11.4375,35.90625 l 2.25,2.90625 v 0.5625 l -1.125,1.125 -11.4375,-1.125 h -27.375 l -1.125,-1.21875 v -0.46875 q 7.96875,-5.15625 7.96875,-10.3125 5.15625,-10.78125 5.15625,-27.84375 0,-28.21875 -14.8125,-44.531247 v -1.125 q 0,-1.40625 37.03125,-4.03125 h 3.46875 l 0.5625,0.5625 h 0.5625 q -12,22.499997 -12,33.656247 v 1.21875 l 2.8125,0.46875 h 0.65625 q 15.9375,0 18.1875,-2.8125 v -1.125 q 0,-28.312497 -10.21875,-37.031247 -1.125,0 -3.375,-4.03125 v -1.125 l 6.75,-0.5625 z"
         id="path1200" />
    </g>
    <text
       xml:space="preserve"
       transform="matrix(0.3100831,0,0,0.3100831,3.9925893,-15.387177)"
       id="text1178"
       style="font-style:normal;font-variant:normal;font-weight:normal;font-stretch:normal;font-size:192px;font-family:Equestria;-inkscape-font-specification:'Equestria, Normal';font-variant-ligatures:normal;font-variant-caps:normal;font-variant-numeric:normal;font-variant-east-asian:normal;white-space:pre;shape-inside:url(#rect1180);fill:#487aff;fill-opacity:1;stroke:none;stroke-width:3"
       inkscape:label="text472"><tspan
         x="0.0234375"
         y="194.7592"
         id="tspan1341">PonySearch</tspan></text>
  </g>
</svg>
